<mxfile host="app.diagrams.net" agent="Mozilla/5.0 (Windows NT 10.0; Win64; x64) AppleWebKit/537.36 (KHTML, like Gecko) Chrome/141.0.0.0 Safari/537.36" version="28.2.5">
  <diagram name="Trang-1" id="D2iTRn5wakDRQlBVng_z">
    <mxGraphModel dx="2605" dy="1405" grid="1" gridSize="10" guides="1" tooltips="1" connect="1" arrows="1" fold="1" page="1" pageScale="1" pageWidth="827" pageHeight="1169" math="0" shadow="0">
      <root>
        <mxCell id="0" />
        <mxCell id="1" parent="0" />
        <mxCell id="MOXuROIgrkh9Ucobw1VO-1" value="" style="rounded=1;whiteSpace=wrap;html=1;" vertex="1" parent="1">
          <mxGeometry x="40" y="210" width="120" height="60" as="geometry" />
        </mxCell>
        <mxCell id="MOXuROIgrkh9Ucobw1VO-2" value="Entry" style="text;strokeColor=none;align=center;fillColor=none;html=1;verticalAlign=middle;whiteSpace=wrap;rounded=0;fontSize=18;fontStyle=0" vertex="1" parent="1">
          <mxGeometry x="40" y="210" width="120" height="60" as="geometry" />
        </mxCell>
        <mxCell id="MOXuROIgrkh9Ucobw1VO-3" value="" style="rounded=1;whiteSpace=wrap;html=1;" vertex="1" parent="1">
          <mxGeometry x="610" y="1215" width="120" height="60" as="geometry" />
        </mxCell>
        <mxCell id="MOXuROIgrkh9Ucobw1VO-4" value="Exit" style="text;strokeColor=none;align=center;fillColor=none;html=1;verticalAlign=middle;whiteSpace=wrap;rounded=0;fontSize=18;fontStyle=0" vertex="1" parent="1">
          <mxGeometry x="610" y="1215" width="120" height="60" as="geometry" />
        </mxCell>
        <mxCell id="MOXuROIgrkh9Ucobw1VO-5" value="" style="endArrow=classic;html=1;rounded=0;exitX=1;exitY=0.5;exitDx=0;exitDy=0;entryX=0;entryY=0.5;entryDx=0;entryDy=0;" edge="1" parent="1" source="MOXuROIgrkh9Ucobw1VO-2" target="MOXuROIgrkh9Ucobw1VO-36">
          <mxGeometry width="50" height="50" relative="1" as="geometry">
            <mxPoint x="170" y="90" as="sourcePoint" />
            <mxPoint x="210" y="90" as="targetPoint" />
          </mxGeometry>
        </mxCell>
        <mxCell id="MOXuROIgrkh9Ucobw1VO-6" value="" style="rounded=0;whiteSpace=wrap;html=1;" vertex="1" parent="1">
          <mxGeometry x="240" y="150" width="240" height="180" as="geometry" />
        </mxCell>
        <mxCell id="MOXuROIgrkh9Ucobw1VO-7" value="(1) int gia_ve = 100000;" style="text;strokeColor=none;align=center;fillColor=none;html=1;verticalAlign=middle;whiteSpace=wrap;rounded=0;fontSize=18;fontStyle=0" vertex="1" parent="1">
          <mxGeometry x="240" y="150" width="240" height="60" as="geometry" />
        </mxCell>
        <mxCell id="MOXuROIgrkh9Ucobw1VO-36" value="(2) int tuoi;" style="text;strokeColor=none;align=center;fillColor=none;html=1;verticalAlign=middle;whiteSpace=wrap;rounded=0;fontSize=18;fontStyle=0" vertex="1" parent="1">
          <mxGeometry x="240" y="210" width="240" height="60" as="geometry" />
        </mxCell>
        <mxCell id="MOXuROIgrkh9Ucobw1VO-40" value="" style="rhombus;whiteSpace=wrap;html=1;" vertex="1" parent="1">
          <mxGeometry x="240" y="380" width="240" height="80" as="geometry" />
        </mxCell>
        <mxCell id="MOXuROIgrkh9Ucobw1VO-41" value="(4) tuoi &amp;lt; 0;" style="text;strokeColor=none;align=center;fillColor=none;html=1;verticalAlign=middle;whiteSpace=wrap;rounded=0;fontSize=18;fontStyle=0" vertex="1" parent="1">
          <mxGeometry x="240" y="390" width="240" height="60" as="geometry" />
        </mxCell>
        <mxCell id="MOXuROIgrkh9Ucobw1VO-43" value="(3) System.out.print(&quot;Vui&amp;nbsp;&lt;div&gt;lòng nhập tuổi của bạn: &quot;);&lt;/div&gt;" style="text;strokeColor=none;align=center;fillColor=none;html=1;verticalAlign=middle;whiteSpace=wrap;rounded=0;fontSize=18;fontStyle=0" vertex="1" parent="1">
          <mxGeometry x="240" y="270" width="240" height="60" as="geometry" />
        </mxCell>
        <mxCell id="MOXuROIgrkh9Ucobw1VO-44" value="" style="endArrow=classic;html=1;rounded=0;exitX=0.5;exitY=1;exitDx=0;exitDy=0;" edge="1" parent="1">
          <mxGeometry width="50" height="50" relative="1" as="geometry">
            <mxPoint x="359.23" y="330" as="sourcePoint" />
            <mxPoint x="359.23" y="380" as="targetPoint" />
          </mxGeometry>
        </mxCell>
        <mxCell id="MOXuROIgrkh9Ucobw1VO-45" value="" style="endArrow=classic;html=1;rounded=0;exitX=0.5;exitY=1;exitDx=0;exitDy=0;entryX=0;entryY=0.5;entryDx=0;entryDy=0;" edge="1" parent="1" target="MOXuROIgrkh9Ucobw1VO-47">
          <mxGeometry width="50" height="50" relative="1" as="geometry">
            <mxPoint x="480" y="420" as="sourcePoint" />
            <mxPoint x="480" y="470" as="targetPoint" />
          </mxGeometry>
        </mxCell>
        <mxCell id="MOXuROIgrkh9Ucobw1VO-46" value="" style="rounded=0;whiteSpace=wrap;html=1;" vertex="1" parent="1">
          <mxGeometry x="550" y="390" width="240" height="60" as="geometry" />
        </mxCell>
        <mxCell id="MOXuROIgrkh9Ucobw1VO-47" value="(5) System.out.println(&quot;Input không hợp lệ&quot;);" style="text;strokeColor=none;align=center;fillColor=none;html=1;verticalAlign=middle;whiteSpace=wrap;rounded=0;fontSize=18;fontStyle=0" vertex="1" parent="1">
          <mxGeometry x="550" y="390" width="240" height="60" as="geometry" />
        </mxCell>
        <mxCell id="MOXuROIgrkh9Ucobw1VO-50" value="" style="endArrow=classic;html=1;rounded=0;exitX=0.5;exitY=1;exitDx=0;exitDy=0;" edge="1" parent="1">
          <mxGeometry width="50" height="50" relative="1" as="geometry">
            <mxPoint x="359.23" y="460" as="sourcePoint" />
            <mxPoint x="359.23" y="510" as="targetPoint" />
          </mxGeometry>
        </mxCell>
        <mxCell id="MOXuROIgrkh9Ucobw1VO-52" value="" style="rounded=0;whiteSpace=wrap;html=1;" vertex="1" parent="1">
          <mxGeometry x="240" y="510" width="240" height="170" as="geometry" />
        </mxCell>
        <mxCell id="MOXuROIgrkh9Ucobw1VO-53" value="&lt;div&gt;(6) System.out.print(&quot;Bạn có phải học sinh/sinh viên? true/false:&lt;span style=&quot;color: light-dark(rgb(0, 0, 0), rgb(255, 255, 255)); background-color: transparent;&quot;&gt;&amp;nbsp;&quot;);&lt;/span&gt;&lt;/div&gt;(7) boolean isStudent;" style="text;strokeColor=none;align=center;fillColor=none;html=1;verticalAlign=middle;whiteSpace=wrap;rounded=0;fontSize=18;fontStyle=0" vertex="1" parent="1">
          <mxGeometry x="240" y="510" width="240" height="170" as="geometry" />
        </mxCell>
        <mxCell id="MOXuROIgrkh9Ucobw1VO-54" value="" style="endArrow=classic;html=1;rounded=0;exitX=0.5;exitY=1;exitDx=0;exitDy=0;" edge="1" parent="1">
          <mxGeometry width="50" height="50" relative="1" as="geometry">
            <mxPoint x="359.23" y="680" as="sourcePoint" />
            <mxPoint x="359.23" y="730" as="targetPoint" />
          </mxGeometry>
        </mxCell>
        <mxCell id="MOXuROIgrkh9Ucobw1VO-57" value="" style="rounded=0;whiteSpace=wrap;html=1;" vertex="1" parent="1">
          <mxGeometry x="800" y="755" width="240" height="60" as="geometry" />
        </mxCell>
        <mxCell id="MOXuROIgrkh9Ucobw1VO-58" value="(9) System.out.println(&quot;Input không hợp lệ&quot;);" style="text;strokeColor=none;align=center;fillColor=none;html=1;verticalAlign=middle;whiteSpace=wrap;rounded=0;fontSize=18;fontStyle=0" vertex="1" parent="1">
          <mxGeometry x="800" y="755" width="240" height="60" as="geometry" />
        </mxCell>
        <mxCell id="MOXuROIgrkh9Ucobw1VO-59" value="" style="endArrow=classic;html=1;rounded=0;exitX=1;exitY=0.5;exitDx=0;exitDy=0;entryX=0;entryY=0.5;entryDx=0;entryDy=0;" edge="1" parent="1" source="MOXuROIgrkh9Ucobw1VO-86" target="MOXuROIgrkh9Ucobw1VO-58">
          <mxGeometry width="50" height="50" relative="1" as="geometry">
            <mxPoint x="520" y="784.23" as="sourcePoint" />
            <mxPoint x="590" y="784.23" as="targetPoint" />
          </mxGeometry>
        </mxCell>
        <mxCell id="MOXuROIgrkh9Ucobw1VO-60" value="catch (InputMismatchException e)" style="text;html=1;align=center;verticalAlign=middle;whiteSpace=wrap;rounded=0;fontSize=18;" vertex="1" parent="1">
          <mxGeometry x="500" y="750" width="280" height="30" as="geometry" />
        </mxCell>
        <mxCell id="MOXuROIgrkh9Ucobw1VO-61" value="" style="rhombus;whiteSpace=wrap;html=1;" vertex="1" parent="1">
          <mxGeometry x="200" y="890" width="320" height="110" as="geometry" />
        </mxCell>
        <mxCell id="MOXuROIgrkh9Ucobw1VO-62" value="(10) isStudent" style="text;strokeColor=none;align=center;fillColor=none;html=1;verticalAlign=middle;whiteSpace=wrap;rounded=0;fontSize=18;fontStyle=0" vertex="1" parent="1">
          <mxGeometry x="240" y="915" width="240" height="60" as="geometry" />
        </mxCell>
        <mxCell id="MOXuROIgrkh9Ucobw1VO-63" value="" style="endArrow=classic;html=1;rounded=0;exitX=0.5;exitY=1;exitDx=0;exitDy=0;" edge="1" parent="1">
          <mxGeometry width="50" height="50" relative="1" as="geometry">
            <mxPoint x="359.09000000000003" y="840" as="sourcePoint" />
            <mxPoint x="359.09000000000003" y="890" as="targetPoint" />
          </mxGeometry>
        </mxCell>
        <mxCell id="MOXuROIgrkh9Ucobw1VO-64" value="&lt;font style=&quot;font-size: 19px;&quot;&gt;T&lt;/font&gt;" style="text;html=1;align=center;verticalAlign=middle;whiteSpace=wrap;rounded=0;" vertex="1" parent="1">
          <mxGeometry x="480" y="390" width="60" height="30" as="geometry" />
        </mxCell>
        <mxCell id="MOXuROIgrkh9Ucobw1VO-65" value="&lt;font style=&quot;font-size: 19px;&quot;&gt;F&lt;/font&gt;" style="text;html=1;align=center;verticalAlign=middle;whiteSpace=wrap;rounded=0;" vertex="1" parent="1">
          <mxGeometry x="360" y="470" width="60" height="30" as="geometry" />
        </mxCell>
        <mxCell id="MOXuROIgrkh9Ucobw1VO-66" value="" style="endArrow=classic;html=1;rounded=0;exitX=1;exitY=0.5;exitDx=0;exitDy=0;" edge="1" parent="1" source="MOXuROIgrkh9Ucobw1VO-61">
          <mxGeometry width="50" height="50" relative="1" as="geometry">
            <mxPoint x="530" y="940" as="sourcePoint" />
            <mxPoint x="580" y="945" as="targetPoint" />
          </mxGeometry>
        </mxCell>
        <mxCell id="MOXuROIgrkh9Ucobw1VO-67" value="" style="rounded=0;whiteSpace=wrap;html=1;" vertex="1" parent="1">
          <mxGeometry x="580" y="920" width="240" height="60" as="geometry" />
        </mxCell>
        <mxCell id="MOXuROIgrkh9Ucobw1VO-68" value="(11) gia_ve = 90000;" style="text;strokeColor=none;align=center;fillColor=none;html=1;verticalAlign=middle;whiteSpace=wrap;rounded=0;fontSize=18;fontStyle=0" vertex="1" parent="1">
          <mxGeometry x="580" y="920" width="240" height="60" as="geometry" />
        </mxCell>
        <mxCell id="MOXuROIgrkh9Ucobw1VO-69" value="&lt;font style=&quot;font-size: 19px;&quot;&gt;T&lt;/font&gt;" style="text;html=1;align=center;verticalAlign=middle;whiteSpace=wrap;rounded=0;" vertex="1" parent="1">
          <mxGeometry x="520" y="910" width="60" height="30" as="geometry" />
        </mxCell>
        <mxCell id="MOXuROIgrkh9Ucobw1VO-70" value="" style="endArrow=classic;html=1;rounded=0;exitX=0.5;exitY=1;exitDx=0;exitDy=0;" edge="1" parent="1">
          <mxGeometry width="50" height="50" relative="1" as="geometry">
            <mxPoint x="360" y="1000" as="sourcePoint" />
            <mxPoint x="360" y="1050" as="targetPoint" />
          </mxGeometry>
        </mxCell>
        <mxCell id="MOXuROIgrkh9Ucobw1VO-71" value="" style="rhombus;whiteSpace=wrap;html=1;" vertex="1" parent="1">
          <mxGeometry x="200" y="1050" width="320" height="110" as="geometry" />
        </mxCell>
        <mxCell id="MOXuROIgrkh9Ucobw1VO-72" value="(12) tuoi &amp;lt; 12 || tuoi &amp;gt;= 60;" style="text;strokeColor=none;align=center;fillColor=none;html=1;verticalAlign=middle;whiteSpace=wrap;rounded=0;fontSize=18;fontStyle=0" vertex="1" parent="1">
          <mxGeometry x="240" y="1075" width="240" height="60" as="geometry" />
        </mxCell>
        <mxCell id="MOXuROIgrkh9Ucobw1VO-73" value="" style="endArrow=classic;html=1;rounded=0;entryX=1;entryY=0.5;entryDx=0;entryDy=0;exitX=0.5;exitY=1;exitDx=0;exitDy=0;" edge="1" parent="1" source="MOXuROIgrkh9Ucobw1VO-68" target="MOXuROIgrkh9Ucobw1VO-71">
          <mxGeometry width="50" height="50" relative="1" as="geometry">
            <mxPoint x="760" y="760" as="sourcePoint" />
            <mxPoint x="810" y="710" as="targetPoint" />
          </mxGeometry>
        </mxCell>
        <mxCell id="MOXuROIgrkh9Ucobw1VO-74" value="&lt;font style=&quot;font-size: 19px;&quot;&gt;F&lt;/font&gt;" style="text;html=1;align=center;verticalAlign=middle;whiteSpace=wrap;rounded=0;" vertex="1" parent="1">
          <mxGeometry x="360" y="1010" width="60" height="30" as="geometry" />
        </mxCell>
        <mxCell id="MOXuROIgrkh9Ucobw1VO-76" value="" style="rounded=0;whiteSpace=wrap;html=1;" vertex="1" parent="1">
          <mxGeometry x="240" y="1215" width="240" height="60" as="geometry" />
        </mxCell>
        <mxCell id="MOXuROIgrkh9Ucobw1VO-77" value="(14) System.out.println(&quot;Giá vé bạn phải trả là: &quot;+gia_ve);" style="text;strokeColor=none;align=center;fillColor=none;html=1;verticalAlign=middle;whiteSpace=wrap;rounded=0;fontSize=18;fontStyle=0" vertex="1" parent="1">
          <mxGeometry x="240" y="1215" width="240" height="60" as="geometry" />
        </mxCell>
        <mxCell id="MOXuROIgrkh9Ucobw1VO-79" value="" style="endArrow=classic;html=1;rounded=0;exitX=0.5;exitY=1;exitDx=0;exitDy=0;entryX=0;entryY=0.5;entryDx=0;entryDy=0;" edge="1" parent="1" target="MOXuROIgrkh9Ucobw1VO-4">
          <mxGeometry width="50" height="50" relative="1" as="geometry">
            <mxPoint x="480" y="1244.09" as="sourcePoint" />
            <mxPoint x="550" y="1244.09" as="targetPoint" />
          </mxGeometry>
        </mxCell>
        <mxCell id="MOXuROIgrkh9Ucobw1VO-80" value="" style="endArrow=none;html=1;rounded=0;" edge="1" parent="1">
          <mxGeometry width="50" height="50" relative="1" as="geometry">
            <mxPoint x="790" y="420" as="sourcePoint" />
            <mxPoint x="1100" y="420" as="targetPoint" />
          </mxGeometry>
        </mxCell>
        <mxCell id="MOXuROIgrkh9Ucobw1VO-81" value="" style="endArrow=none;html=1;rounded=0;" edge="1" parent="1">
          <mxGeometry width="50" height="50" relative="1" as="geometry">
            <mxPoint x="1100" y="420" as="sourcePoint" />
            <mxPoint x="1100" y="1240" as="targetPoint" />
          </mxGeometry>
        </mxCell>
        <mxCell id="MOXuROIgrkh9Ucobw1VO-82" value="" style="endArrow=none;html=1;rounded=0;exitX=1;exitY=0.5;exitDx=0;exitDy=0;" edge="1" parent="1" source="MOXuROIgrkh9Ucobw1VO-58">
          <mxGeometry width="50" height="50" relative="1" as="geometry">
            <mxPoint x="780" y="870" as="sourcePoint" />
            <mxPoint x="1100" y="785" as="targetPoint" />
          </mxGeometry>
        </mxCell>
        <mxCell id="MOXuROIgrkh9Ucobw1VO-83" value="" style="endArrow=classic;html=1;rounded=0;entryX=1;entryY=0.5;entryDx=0;entryDy=0;" edge="1" parent="1" target="MOXuROIgrkh9Ucobw1VO-4">
          <mxGeometry width="50" height="50" relative="1" as="geometry">
            <mxPoint x="1100" y="1240" as="sourcePoint" />
            <mxPoint x="830" y="820" as="targetPoint" />
          </mxGeometry>
        </mxCell>
        <mxCell id="MOXuROIgrkh9Ucobw1VO-85" value="" style="rounded=0;whiteSpace=wrap;html=1;" vertex="1" parent="1">
          <mxGeometry x="240" y="735" width="240" height="105" as="geometry" />
        </mxCell>
        <mxCell id="MOXuROIgrkh9Ucobw1VO-86" value="&lt;font style=&quot;font-size: 19px;&quot;&gt;(8) isStudent = scanner.nextBoolean();&lt;/font&gt;" style="text;html=1;align=center;verticalAlign=middle;whiteSpace=wrap;rounded=0;" vertex="1" parent="1">
          <mxGeometry x="240" y="735" width="240" height="100" as="geometry" />
        </mxCell>
        <mxCell id="MOXuROIgrkh9Ucobw1VO-88" value="" style="endArrow=classic;html=1;rounded=0;entryX=0;entryY=0.5;entryDx=0;entryDy=0;" edge="1" parent="1" target="MOXuROIgrkh9Ucobw1VO-90">
          <mxGeometry width="50" height="50" relative="1" as="geometry">
            <mxPoint x="520" y="1100" as="sourcePoint" />
            <mxPoint x="540" y="1135" as="targetPoint" />
          </mxGeometry>
        </mxCell>
        <mxCell id="MOXuROIgrkh9Ucobw1VO-89" value="" style="rounded=0;whiteSpace=wrap;html=1;" vertex="1" parent="1">
          <mxGeometry x="587" y="1080" width="240" height="60" as="geometry" />
        </mxCell>
        <mxCell id="MOXuROIgrkh9Ucobw1VO-90" value="(13) gia_ve = 80000;" style="text;strokeColor=none;align=center;fillColor=none;html=1;verticalAlign=middle;whiteSpace=wrap;rounded=0;fontSize=18;fontStyle=0" vertex="1" parent="1">
          <mxGeometry x="587" y="1080" width="240" height="60" as="geometry" />
        </mxCell>
        <mxCell id="MOXuROIgrkh9Ucobw1VO-91" value="&lt;font style=&quot;font-size: 19px;&quot;&gt;T&lt;/font&gt;" style="text;html=1;align=center;verticalAlign=middle;whiteSpace=wrap;rounded=0;" vertex="1" parent="1">
          <mxGeometry x="527" y="1110" width="60" height="30" as="geometry" />
        </mxCell>
        <mxCell id="MOXuROIgrkh9Ucobw1VO-92" value="" style="endArrow=classic;html=1;rounded=0;exitX=0.5;exitY=1;exitDx=0;exitDy=0;entryX=1;entryY=0.5;entryDx=0;entryDy=0;" edge="1" parent="1" source="MOXuROIgrkh9Ucobw1VO-90" target="MOXuROIgrkh9Ucobw1VO-77">
          <mxGeometry width="50" height="50" relative="1" as="geometry">
            <mxPoint x="767" y="775" as="sourcePoint" />
            <mxPoint x="490" y="1235" as="targetPoint" />
          </mxGeometry>
        </mxCell>
        <mxCell id="MOXuROIgrkh9Ucobw1VO-93" value="" style="endArrow=classic;html=1;rounded=0;exitX=0.5;exitY=1;exitDx=0;exitDy=0;" edge="1" parent="1">
          <mxGeometry width="50" height="50" relative="1" as="geometry">
            <mxPoint x="360" y="1165" as="sourcePoint" />
            <mxPoint x="360" y="1215" as="targetPoint" />
            <Array as="points">
              <mxPoint x="360" y="1195" />
            </Array>
          </mxGeometry>
        </mxCell>
        <mxCell id="MOXuROIgrkh9Ucobw1VO-96" value="&lt;font style=&quot;font-size: 19px;&quot;&gt;F&lt;/font&gt;" style="text;html=1;align=center;verticalAlign=middle;whiteSpace=wrap;rounded=0;" vertex="1" parent="1">
          <mxGeometry x="360" y="1175" width="60" height="30" as="geometry" />
        </mxCell>
      </root>
    </mxGraphModel>
  </diagram>
</mxfile>
